<svg style="width:24px;height:24px" viewBox="184.559 -41.912 289.705 288.969">
  <path style="stroke: rgb(11, 55, 32); fill: rgb(19, 198, 162);" d="M 275.251 159.285 C 196.355 162.121 189.48 75.788 304.254 51.12 C 409.662 28.466 469.335 -20.905 468.526 -20.905 C 468.526 -20.905 467.509 81.032 412.68 150.267 C 375.361 197.392 283.571 209.012 275.251 159.285 Z" transform="matrix(0.993542, -0.113467, 0.113467, 0.993542, -7.465346, 39.437115)"/>
  <path style="stroke: rgb(11, 55, 32); fill: rgb(19, 198, 162);" d="M 193.45 218.147 C 200.559 221.678 209.825 228.706 209.825 228.706 C 209.825 228.706 257.29 211.094 282.885 181.19 C 284.735 179.028 278.067 178.55 277.573 178.55 C 260.497 191.557 230.268 217.268 193.45 218.147 Z" transform="matrix(0.99174, -0.128263, 0.128263, 0.99174, -24.149355, 32.250706)"/>
  <path style="stroke: rgb(11, 55, 32); fill: rgb(251, 252, 252);" d="M 282.3 147.574 C 289.409 151.107 286.526 155.073 286.526 155.073 C 286.526 155.073 403.374 94.479 450.221 15.314 C 456.228 5.164 400.862 94.637 282.3 147.574 Z" transform="matrix(0.99174, -0.128263, 0.128263, 0.99174, -7.849146, 47.706272)"/>
</svg>

